<svg width="50" height="50" viewBox="0 0 50 50" fill="none" xmlns="http://www.w3.org/2000/svg">
<g clip-path="url(#clip0)">
<path d="M49.8697 19.1794C49.5424 18.167 48.6444 17.4479 47.5819 17.3521L33.1506 16.0417L27.444 2.68499C27.0232 1.70611 26.065 1.07248 25.0003 1.07248C23.9355 1.07248 22.9773 1.70611 22.5565 2.68728L16.8499 16.0417L2.41629 17.3521C1.35577 17.4502 0.460058 18.167 0.130841 19.1794C-0.198376 20.1918 0.105664 21.3023 0.907915 22.0023L11.8163 31.5691L8.59969 45.7384C8.36431 46.7802 8.76868 47.8571 9.63311 48.482C10.0978 48.8177 10.6414 48.9886 11.1896 48.9886C11.6622 48.9886 12.131 48.8612 12.5518 48.6094L25.0003 41.1694L37.4441 48.6094C38.3547 49.1572 39.5026 49.1072 40.3651 48.482C41.2299 47.8552 41.6339 46.7779 41.3985 45.7384L38.1819 31.5691L49.0903 22.0043C49.8926 21.3023 50.1989 20.1938 49.8697 19.1794Z" fill="#2D8C96"/>
</g>
<defs>
<clipPath id="clip0">
<rect width="50" height="50" fill="white"/>
</clipPath>
</defs>
</svg>
