<svg width="50" height="50" viewBox="0 0 50 50" fill="none" xmlns="http://www.w3.org/2000/svg">
<g clip-path="url(#clip0)">
<path d="M24.6436 24.0852C27.9525 24.0852 30.8177 22.8985 33.1588 20.557C35.4998 18.2159 36.6866 15.3515 36.6866 12.0422C36.6866 8.73413 35.4998 5.86929 33.1584 3.52745C30.8169 1.18675 27.9521 0 24.6436 0C21.3343 0 18.4699 1.18675 16.1288 3.52783C13.7877 5.86891 12.6006 8.73375 12.6006 12.0422C12.6006 15.3515 13.7877 18.2163 16.1292 20.5574C18.4706 22.8981 21.3355 24.0852 24.6436 24.0852Z" fill="#2D8C96"/>
<path d="M45.7157 38.4476C45.6482 37.4733 45.5116 36.4105 45.3106 35.2882C45.1077 34.1576 44.8463 33.0887 44.5335 32.1117C44.2104 31.102 43.771 30.1048 43.2278 29.1492C42.664 28.1574 42.0017 27.2938 41.2586 26.5831C40.4816 25.8396 39.5302 25.2419 38.43 24.8058C37.3337 24.3721 36.1187 24.1524 34.819 24.1524C34.3086 24.1524 33.815 24.3618 32.8617 24.9825C32.275 25.3651 31.5887 25.8076 30.8228 26.297C30.1678 26.7143 29.2805 27.1053 28.1845 27.4593C27.1152 27.8053 26.0296 27.9808 24.958 27.9808C23.8865 27.9808 22.8012 27.8053 21.7308 27.4593C20.636 27.1057 19.7487 26.7147 19.0945 26.2974C18.3357 25.8125 17.6491 25.37 17.0536 24.9821C16.1015 24.3614 15.6075 24.152 15.097 24.152C13.797 24.152 12.5824 24.3721 11.4864 24.8062C10.387 25.2415 9.43527 25.8392 8.65746 26.5835C7.91473 27.2945 7.25212 28.1578 6.68907 29.1492C6.14624 30.1048 5.70679 31.1016 5.3833 32.1121C5.07088 33.0891 4.80957 34.1576 4.60663 35.2882C4.40559 36.409 4.26903 37.4722 4.20151 38.4487C4.13513 39.4054 4.10156 40.3984 4.10156 41.4013C4.10156 44.0113 4.93126 46.1243 6.56738 47.6826C8.18329 49.2203 10.3214 50.0004 12.9215 50.0004H36.9968C39.5969 50.0004 41.7343 49.2207 43.3506 47.6826C44.9871 46.1254 45.8168 44.0121 45.8168 41.4009C45.8164 40.3934 45.7825 39.3997 45.7157 38.4476Z" fill="#2D8C96"/>
</g>
<defs>
<clipPath id="clip0">
<rect width="50" height="50.0002" fill="white"/>
</clipPath>
</defs>
</svg>
