<svg width="21" height="20" viewBox="0 0 21 20" fill="none" xmlns="http://www.w3.org/2000/svg">
<g clip-path="url(#clip0)">
<path d="M20.7907 7.67191C20.6579 7.26693 20.2936 6.97929 19.8625 6.94099L14.0075 6.41684L11.6923 1.07414C11.5216 0.682593 11.1328 0.429138 10.7008 0.429138C10.2689 0.429138 9.88007 0.682593 9.70935 1.07506L7.39412 6.41684L1.53818 6.94099C1.10792 6.98021 0.744513 7.26693 0.610945 7.67191C0.477377 8.07689 0.600731 8.52108 0.926215 8.80109L5.35191 12.6278L4.04688 18.2955C3.95138 18.7122 4.11544 19.143 4.46615 19.3929C4.65466 19.5272 4.87521 19.5956 5.09762 19.5956C5.28938 19.5956 5.4796 19.5446 5.65031 19.4439L10.7008 16.4679L15.7495 19.4439C16.1189 19.663 16.5846 19.643 16.9346 19.3929C17.2854 19.1422 17.4493 18.7113 17.3538 18.2955L16.0488 12.6278L20.4745 8.80185C20.8 8.52108 20.9243 8.07765 20.7907 7.67191Z" fill="#2D8C96"/>
</g>
<defs>
<clipPath id="clip0">
<rect x="0.557861" width="20.2857" height="20" fill="white"/>
</clipPath>
</defs>
</svg>
