<svg width="21" height="20" viewBox="0 0 21 20" fill="none" xmlns="http://www.w3.org/2000/svg">
<g clip-path="url(#clip0)">
<path d="M20.7179 7.67189C20.5851 7.26691 20.2208 6.97928 19.7898 6.94098L13.9348 6.41683L11.6195 1.07413C11.4488 0.682578 11.06 0.429123 10.6281 0.429123C10.1961 0.429123 9.80731 0.682578 9.6366 1.07504L7.32137 6.41683L1.46543 6.94098C1.03516 6.9802 0.67176 7.26691 0.538192 7.67189C0.404624 8.07687 0.527977 8.52107 0.853461 8.80107L5.27916 12.6278L3.97412 18.2955C3.87863 18.7122 4.04269 19.143 4.3934 19.3929C4.58191 19.5272 4.80246 19.5956 5.02487 19.5956C5.21663 19.5956 5.40684 19.5446 5.57756 19.4439L10.6281 16.4679L15.6767 19.4439C16.0462 19.663 16.5119 19.643 16.8618 19.3929C17.2127 19.1422 17.3766 18.7113 17.2811 18.2955L15.976 12.6278L20.4017 8.80184C20.7272 8.52107 20.8515 8.07764 20.7179 7.67189Z" fill="#68C9D6"/>
</g>
<defs>
<clipPath id="clip0">
<rect x="0.485107" width="20.2857" height="20" fill="white"/>
</clipPath>
</defs>
</svg>
